<?xml version="1.0" encoding="UTF-8" standalone="no"?>
<!DOCTYPE svg PUBLIC "-//W3C//DTD SVG 1.1//EN" "http://www.w3.org/Graphics/SVG/1.1/DTD/svg11.dtd">
<svg width="100%" height="100%" viewBox="0 0 591 591" version="1.1" xmlns="http://www.w3.org/2000/svg" xmlns:xlink="http://www.w3.org/1999/xlink" xml:space="preserve" xmlns:serif="http://www.serif.com/" style="fill-rule:evenodd;clip-rule:evenodd;stroke-linejoin:round;stroke-miterlimit:2;">
    <g id="Calque-1" serif:id="Calque 1" transform="matrix(4.16667,0,0,4.16667,0,0)">
        <g transform="matrix(0,-1,-1,0,141.264,141.156)">
            <path d="M70.296,2.943C32.716,2.943 2.253,33.404 2.253,70.973C2.253,108.549 32.716,139.005 70.296,139.005C107.866,139.005 138.327,108.549 138.327,70.973C138.327,33.404 107.866,2.943 70.296,2.943" style="fill:rgb(10,26,49);fill-rule:nonzero;"/>
        </g>
        <g transform="matrix(1,0,0,1,0,-10.1588)">
            <path d="M117.704,78.323C111.048,75.777 103.919,74.913 97.025,74.077L96.926,74.065C93.257,73.619 89.666,73.161 86.081,72.465C83.409,71.944 80.722,71.219 78.123,70.518C77.184,70.265 76.246,70.012 75.306,69.767C67.873,67.838 61.093,67.284 54.483,68.055C47.853,68.826 41.308,70.949 35.552,74.194C33.695,75.241 31.905,76.43 30.173,77.58C27.793,79.16 25.333,80.795 22.723,82.038C22.136,82.318 21.836,82.926 21.976,83.549C22.13,84.223 22.732,84.714 23.41,84.714C23.625,84.714 23.836,84.666 24.04,84.569C26.919,83.196 29.587,81.419 32.167,79.7L33.115,79.07C36.389,76.903 39.257,75.339 42.141,74.147C48.182,71.649 55.055,70.391 61.889,70.554C67.335,70.673 72.66,72.062 77.81,73.406C79.598,73.872 81.446,74.354 83.286,74.78C87.804,75.83 92.461,76.394 96.965,76.94C99.485,77.246 102.092,77.562 104.635,77.959C109.325,78.684 113.304,79.687 116.799,81.026C117.598,81.334 118.453,80.829 118.612,79.977C118.746,79.262 118.374,78.582 117.704,78.323" style="fill:white;fill-rule:nonzero;"/>
        </g>
        <g transform="matrix(1,0,0,1,0,-57.9422)">
            <path d="M30.96,97.327C34.783,98.322 38.079,99.937 38.079,103.917C38.079,107.772 34.877,110.351 30.307,110.351C26.7,110.351 23.966,108.799 22.939,107.804C21.728,106.622 21.976,105.255 22.754,104.352C23.687,103.326 24.836,103.265 26.359,104.197C27.013,104.663 28.566,105.907 30.68,105.907C32.39,105.907 33.106,105.037 33.106,104.228C33.106,103.234 31.83,102.736 28.69,101.835C24.774,100.808 22.722,99.13 22.722,95.773C22.722,91.701 26.11,89.431 30.089,89.431C32.639,89.431 34.939,90.426 35.996,91.327C37.457,92.447 37.488,93.753 36.587,94.841C35.716,95.897 34.535,96.115 33.074,95.181C32.576,94.841 31.427,93.783 29.748,93.783C28.474,93.783 27.603,94.435 27.603,95.244C27.603,96.239 28.659,96.705 30.96,97.327" style="fill:rgb(236,115,44);fill-rule:nonzero;"/>
        </g>
        <g transform="matrix(1,0,0,1,0,-57.7554)">
            <path d="M59.438,109.855C57.946,110.134 56.671,109.232 56.484,107.679L55.551,98.913L52.972,105.005C52.599,106.031 51.759,106.622 50.703,106.622C49.584,106.622 48.776,106.031 48.402,105.005L45.853,98.913L44.951,107.679C44.764,109.232 43.459,110.134 41.968,109.855C40.568,109.637 39.947,108.424 40.132,106.901L41.874,91.792C42.091,90.208 43.118,89.461 44.33,89.461C45.356,89.461 46.07,89.99 46.6,91.047L50.703,99.41L54.776,91.047C55.303,89.99 56.019,89.461 57.044,89.461C58.32,89.461 59.344,90.239 59.563,91.762L61.303,106.901C61.49,108.424 60.837,109.606 59.438,109.855" style="fill:rgb(236,115,44);fill-rule:nonzero;"/>
        </g>
        <g transform="matrix(1,0,0,1,0,-57.8165)">
            <path d="M74.61,102.548L72.31,96.58L70.041,102.548L74.61,102.548ZM80.082,109.791C78.746,110.351 77.345,109.698 76.817,108.299L76.133,106.559L68.486,106.559L67.834,108.299C67.305,109.698 65.906,110.351 64.57,109.791C63.202,109.232 62.611,107.864 63.202,106.496L69.884,91.078C70.414,89.896 71.284,89.306 72.31,89.306C73.366,89.306 74.238,89.896 74.766,91.078L81.449,106.496C82.04,107.864 81.419,109.232 80.082,109.791" style="fill:rgb(236,115,44);fill-rule:nonzero;"/>
        </g>
        <g transform="matrix(1,0,0,1,0,-57.6)">
            <path d="M96.685,108.642C96.374,108.239 95.037,105.938 94.757,105.502C94.042,104.289 93.266,103.327 91.898,103.327C90.654,103.327 89.94,102.487 89.94,101.244C89.94,100 90.654,99.286 91.898,99.286L92.519,99.286C94.789,99.286 95.66,98.104 95.66,96.549C95.66,95.151 95.037,93.875 92.674,93.875L88.757,93.875L88.757,107.181C88.757,108.642 87.732,109.762 86.271,109.762C84.81,109.762 83.785,108.642 83.785,107.181L83.785,91.917C83.785,90.456 84.81,89.337 86.271,89.337L93.421,89.337C98.053,89.337 100.572,92.166 100.572,96.021C100.572,98.757 99.421,100.529 97.618,101.648C98.053,101.958 98.55,102.456 98.892,102.984C99.171,103.357 100.415,105.502 100.664,105.907C101.379,107.151 101.224,108.705 100.074,109.357C98.861,110.103 97.4,109.917 96.685,108.642" style="fill:rgb(236,115,44);fill-rule:nonzero;"/>
        </g>
        <g transform="matrix(1,0,0,1,0,-57.9411)">
            <path d="M118.478,92.072C118.478,93.471 117.452,94.466 115.991,94.466L112.634,94.466L112.634,107.522C112.634,108.983 111.608,110.103 110.146,110.103C108.685,110.103 107.66,108.983 107.66,107.522L107.66,94.466L104.271,94.466C102.81,94.466 101.785,93.471 101.785,92.072C101.785,90.704 102.81,89.678 104.271,89.678L115.991,89.678C117.452,89.678 118.478,90.704 118.478,92.072" style="fill:rgb(236,115,44);fill-rule:nonzero;"/>
        </g>
        <g transform="matrix(1,0,0,1,0,34.7138)">
            <path d="M44.121,64.561C42.898,64.765 41.844,64.085 41.674,62.759L40.314,50.384L36.473,58.917C36.099,59.767 35.418,60.244 34.602,60.244C33.787,60.244 33.072,59.767 32.699,58.917L28.926,50.418L27.565,62.759C27.395,64.085 26.342,64.765 25.117,64.561C23.859,64.357 23.486,63.269 23.656,62.045L25.627,44.299C25.798,43.007 26.715,42.361 27.701,42.361C28.551,42.361 29.197,42.837 29.537,43.619L34.602,54.328L39.668,43.619C40.008,42.837 40.654,42.361 41.471,42.361C42.592,42.361 43.441,43.109 43.611,44.265L45.584,62.045C45.754,63.269 45.346,64.324 44.121,64.561" style="fill:white;fill-rule:nonzero;"/>
        </g>
        <g transform="matrix(1,0,0,1,0,34.5772)">
            <path d="M57.62,53.649C57.62,52.459 58.504,51.507 59.762,51.507C61.019,51.507 61.904,52.459 61.904,53.649C61.904,54.873 61.019,55.791 59.762,55.791C58.504,55.791 57.62,54.873 57.62,53.649M67.004,53.683C67.004,49.366 64.147,46.136 59.762,46.136C55.377,46.136 52.521,49.366 52.521,53.683C52.521,57.966 55.377,61.128 59.762,61.128C64.147,61.128 67.004,57.966 67.004,53.683M48.373,53.683C48.373,47.087 53.099,42.26 59.762,42.26C66.426,42.26 71.15,47.087 71.15,53.683C71.15,60.245 66.426,65.003 59.762,65.003C53.099,65.003 48.373,60.245 48.373,53.683" style="fill:white;fill-rule:nonzero;"/>
        </g>
        <g transform="matrix(1,0,0,1,0,34.5772)">
            <path d="M82.916,53.649C82.916,52.459 83.801,51.507 85.059,51.507C86.316,51.507 87.199,52.459 87.199,53.649C87.199,54.873 86.316,55.791 85.059,55.791C83.801,55.791 82.916,54.873 82.916,53.649M92.299,53.683C92.299,49.366 89.443,46.136 85.059,46.136C80.672,46.136 77.816,49.366 77.816,53.683C77.816,57.966 80.672,61.128 85.059,61.128C89.443,61.128 92.299,57.966 92.299,53.683M73.669,53.683C73.669,47.087 78.395,42.26 85.059,42.26C91.721,42.26 96.447,47.087 96.447,53.683C96.447,60.245 91.721,65.003 85.059,65.003C78.395,65.003 73.669,60.245 73.669,53.683" style="fill:white;fill-rule:nonzero;"/>
        </g>
        <g transform="matrix(1,0,0,1,0,34.4084)">
            <path d="M116.779,45.625L109.504,63.677C109.164,64.561 108.552,65.036 107.566,65.036C106.58,65.036 105.934,64.561 105.594,63.677L98.353,45.625C97.912,44.502 98.285,43.347 99.441,42.871C100.597,42.395 101.787,42.803 102.195,44.095L107.566,58.577L112.937,44.095C113.38,42.803 114.535,42.395 115.658,42.871C116.847,43.347 117.221,44.502 116.779,45.625" style="fill:white;fill-rule:nonzero;"/>
        </g>
        <g>
            <g transform="matrix(8,0,0,8,41.0756,112.235)">
                <path d="M0.22,-0.64L0.22,-0.119L0.514,-0.119C0.538,-0.119 0.556,-0.113 0.568,-0.102C0.581,-0.091 0.587,-0.076 0.587,-0.059C0.587,-0.042 0.581,-0.027 0.568,-0.016C0.556,-0.005 0.538,0 0.514,0L0.164,0C0.132,0 0.11,-0.007 0.096,-0.021C0.082,-0.035 0.075,-0.058 0.075,-0.089L0.075,-0.64C0.075,-0.669 0.082,-0.691 0.095,-0.706C0.108,-0.721 0.125,-0.728 0.147,-0.728C0.169,-0.728 0.186,-0.721 0.2,-0.706C0.213,-0.692 0.22,-0.67 0.22,-0.64Z" style="fill:white;fill-rule:nonzero;"/>
            </g>
            <g transform="matrix(8,0,0,8,45.9076,112.235)">
                <path d="M0.441,-0.226L0.18,-0.226C0.181,-0.196 0.187,-0.169 0.198,-0.146C0.21,-0.123 0.226,-0.105 0.246,-0.094C0.266,-0.082 0.287,-0.076 0.311,-0.076C0.327,-0.076 0.342,-0.078 0.355,-0.082C0.368,-0.086 0.381,-0.091 0.393,-0.099C0.405,-0.107 0.417,-0.116 0.427,-0.125C0.438,-0.134 0.451,-0.146 0.468,-0.162C0.475,-0.168 0.484,-0.171 0.497,-0.171C0.511,-0.171 0.522,-0.167 0.53,-0.16C0.539,-0.152 0.543,-0.142 0.543,-0.128C0.543,-0.116 0.538,-0.102 0.529,-0.086C0.519,-0.07 0.505,-0.054 0.486,-0.039C0.467,-0.024 0.443,-0.012 0.414,-0.002C0.385,0.007 0.352,0.012 0.315,0.012C0.229,0.012 0.163,-0.012 0.115,-0.061C0.068,-0.11 0.044,-0.176 0.044,-0.26C0.044,-0.299 0.05,-0.336 0.062,-0.369C0.073,-0.403 0.09,-0.432 0.113,-0.456C0.135,-0.48 0.163,-0.499 0.196,-0.511C0.229,-0.524 0.265,-0.531 0.305,-0.531C0.357,-0.531 0.402,-0.52 0.439,-0.498C0.476,-0.476 0.504,-0.447 0.523,-0.413C0.542,-0.378 0.551,-0.342 0.551,-0.306C0.551,-0.273 0.541,-0.251 0.522,-0.241C0.503,-0.231 0.476,-0.226 0.441,-0.226ZM0.18,-0.302L0.422,-0.302C0.419,-0.347 0.406,-0.381 0.385,-0.404C0.364,-0.427 0.336,-0.438 0.301,-0.438C0.268,-0.438 0.24,-0.427 0.219,-0.404C0.198,-0.381 0.185,-0.347 0.18,-0.302Z" style="fill:white;fill-rule:nonzero;"/>
            </g>
            <g transform="matrix(8,0,0,8,52.6615,112.235)">
                <path d="M0.512,-0.249L0.512,-0.072C0.512,-0.044 0.506,-0.023 0.493,-0.009C0.48,0.005 0.464,0.012 0.443,0.012C0.423,0.012 0.406,0.005 0.394,-0.009C0.381,-0.023 0.375,-0.044 0.375,-0.072L0.375,-0.284C0.375,-0.318 0.374,-0.344 0.372,-0.362C0.369,-0.381 0.363,-0.396 0.353,-0.408C0.343,-0.42 0.327,-0.426 0.305,-0.426C0.262,-0.426 0.233,-0.411 0.219,-0.381C0.205,-0.351 0.198,-0.308 0.198,-0.252L0.198,-0.072C0.198,-0.044 0.192,-0.023 0.179,-0.009C0.167,0.005 0.15,0.012 0.13,0.012C0.11,0.012 0.093,0.005 0.08,-0.009C0.067,-0.023 0.061,-0.044 0.061,-0.072L0.061,-0.453C0.061,-0.478 0.067,-0.497 0.078,-0.51C0.09,-0.523 0.105,-0.53 0.124,-0.53C0.142,-0.53 0.157,-0.524 0.17,-0.511C0.182,-0.499 0.188,-0.482 0.188,-0.461L0.188,-0.448C0.211,-0.476 0.236,-0.496 0.262,-0.509C0.289,-0.522 0.318,-0.529 0.35,-0.529C0.384,-0.529 0.412,-0.522 0.437,-0.509C0.461,-0.495 0.48,-0.475 0.496,-0.448C0.519,-0.476 0.543,-0.496 0.568,-0.509C0.594,-0.522 0.623,-0.529 0.654,-0.529C0.69,-0.529 0.722,-0.522 0.748,-0.507C0.774,-0.493 0.794,-0.472 0.807,-0.446C0.819,-0.422 0.824,-0.384 0.824,-0.332L0.824,-0.072C0.824,-0.044 0.818,-0.023 0.805,-0.009C0.792,0.005 0.776,0.012 0.755,0.012C0.735,0.012 0.718,0.005 0.705,-0.009C0.692,-0.023 0.686,-0.044 0.686,-0.072L0.686,-0.296C0.686,-0.325 0.685,-0.347 0.682,-0.365C0.68,-0.382 0.673,-0.396 0.663,-0.408C0.652,-0.42 0.636,-0.426 0.614,-0.426C0.596,-0.426 0.58,-0.421 0.564,-0.41C0.548,-0.4 0.536,-0.386 0.527,-0.368C0.517,-0.346 0.512,-0.306 0.512,-0.249Z" style="fill:white;fill-rule:nonzero;"/>
            </g>
            <g transform="matrix(8,0,0,8,59.7396,112.235)">
                <path d="M0.568,-0.259C0.568,-0.219 0.562,-0.182 0.549,-0.149C0.537,-0.115 0.519,-0.087 0.496,-0.063C0.472,-0.038 0.444,-0.02 0.412,-0.007C0.379,0.006 0.342,0.012 0.302,0.012C0.261,0.012 0.225,0.006 0.193,-0.007C0.161,-0.02 0.133,-0.039 0.109,-0.063C0.086,-0.087 0.068,-0.116 0.055,-0.149C0.043,-0.182 0.037,-0.219 0.037,-0.259C0.037,-0.299 0.043,-0.336 0.056,-0.37C0.068,-0.403 0.086,-0.432 0.109,-0.456C0.132,-0.479 0.16,-0.498 0.193,-0.51C0.226,-0.523 0.262,-0.53 0.302,-0.53C0.342,-0.53 0.379,-0.523 0.412,-0.51C0.444,-0.497 0.473,-0.479 0.496,-0.455C0.52,-0.431 0.537,-0.402 0.55,-0.369C0.562,-0.335 0.568,-0.299 0.568,-0.259ZM0.434,-0.259C0.434,-0.313 0.422,-0.355 0.398,-0.386C0.374,-0.416 0.342,-0.431 0.302,-0.431C0.276,-0.431 0.253,-0.424 0.233,-0.411C0.213,-0.397 0.198,-0.377 0.187,-0.351C0.176,-0.325 0.171,-0.294 0.171,-0.259C0.171,-0.224 0.176,-0.194 0.187,-0.167C0.197,-0.141 0.212,-0.122 0.232,-0.108C0.252,-0.094 0.275,-0.087 0.302,-0.087C0.342,-0.087 0.374,-0.102 0.398,-0.133C0.422,-0.163 0.434,-0.205 0.434,-0.259Z" style="fill:white;fill-rule:nonzero;"/>
            </g>
            <g transform="matrix(8,0,0,8,64.5717,112.235)">
                <path d="M0.076,-0.518L0.091,-0.518L0.091,-0.598C0.091,-0.62 0.091,-0.636 0.093,-0.649C0.094,-0.661 0.097,-0.671 0.102,-0.68C0.107,-0.689 0.115,-0.697 0.125,-0.702C0.134,-0.708 0.145,-0.711 0.157,-0.711C0.174,-0.711 0.189,-0.705 0.203,-0.692C0.212,-0.683 0.218,-0.673 0.22,-0.661C0.223,-0.649 0.224,-0.631 0.224,-0.609L0.224,-0.518L0.273,-0.518C0.292,-0.518 0.306,-0.514 0.316,-0.505C0.326,-0.496 0.331,-0.484 0.331,-0.47C0.331,-0.452 0.324,-0.44 0.31,-0.433C0.296,-0.425 0.275,-0.422 0.249,-0.422L0.224,-0.422L0.224,-0.177C0.224,-0.156 0.225,-0.14 0.226,-0.129C0.228,-0.117 0.232,-0.108 0.238,-0.101C0.244,-0.094 0.255,-0.091 0.269,-0.091C0.277,-0.091 0.287,-0.092 0.301,-0.095C0.314,-0.098 0.325,-0.099 0.332,-0.099C0.343,-0.099 0.352,-0.095 0.361,-0.086C0.37,-0.078 0.374,-0.067 0.374,-0.054C0.374,-0.033 0.362,-0.016 0.339,-0.005C0.315,0.007 0.282,0.012 0.238,0.012C0.196,0.012 0.165,0.005 0.143,-0.009C0.122,-0.023 0.108,-0.042 0.101,-0.067C0.094,-0.092 0.091,-0.125 0.091,-0.166L0.091,-0.422L0.073,-0.422C0.054,-0.422 0.039,-0.426 0.029,-0.436C0.019,-0.445 0.014,-0.456 0.014,-0.47C0.014,-0.484 0.019,-0.496 0.03,-0.505C0.041,-0.514 0.056,-0.518 0.076,-0.518Z" style="fill:white;fill-rule:nonzero;"/>
            </g>
            <g transform="matrix(8,0,0,8,67.4037,112.235)">
                <path d="M0.441,-0.226L0.18,-0.226C0.181,-0.196 0.187,-0.169 0.198,-0.146C0.21,-0.123 0.226,-0.105 0.246,-0.094C0.266,-0.082 0.287,-0.076 0.311,-0.076C0.327,-0.076 0.342,-0.078 0.355,-0.082C0.368,-0.086 0.381,-0.091 0.393,-0.099C0.405,-0.107 0.417,-0.116 0.427,-0.125C0.438,-0.134 0.451,-0.146 0.468,-0.162C0.475,-0.168 0.484,-0.171 0.497,-0.171C0.511,-0.171 0.522,-0.167 0.53,-0.16C0.539,-0.152 0.543,-0.142 0.543,-0.128C0.543,-0.116 0.538,-0.102 0.529,-0.086C0.519,-0.07 0.505,-0.054 0.486,-0.039C0.467,-0.024 0.443,-0.012 0.414,-0.002C0.385,0.007 0.352,0.012 0.315,0.012C0.229,0.012 0.163,-0.012 0.115,-0.061C0.068,-0.11 0.044,-0.176 0.044,-0.26C0.044,-0.299 0.05,-0.336 0.062,-0.369C0.073,-0.403 0.09,-0.432 0.113,-0.456C0.135,-0.48 0.163,-0.499 0.196,-0.511C0.229,-0.524 0.265,-0.531 0.305,-0.531C0.357,-0.531 0.402,-0.52 0.439,-0.498C0.476,-0.476 0.504,-0.447 0.523,-0.413C0.542,-0.378 0.551,-0.342 0.551,-0.306C0.551,-0.273 0.541,-0.251 0.522,-0.241C0.503,-0.231 0.476,-0.226 0.441,-0.226ZM0.18,-0.302L0.422,-0.302C0.419,-0.347 0.406,-0.381 0.385,-0.404C0.364,-0.427 0.336,-0.438 0.301,-0.438C0.268,-0.438 0.24,-0.427 0.219,-0.404C0.198,-0.381 0.185,-0.347 0.18,-0.302Z" style="fill:white;fill-rule:nonzero;"/>
            </g>
            <g transform="matrix(8,0,0,8,72.1576,112.235)">
                <path d="M0.415,-0.063L0.415,-0.08C0.399,-0.06 0.382,-0.043 0.365,-0.029C0.347,-0.016 0.328,-0.005 0.307,0.001C0.286,0.008 0.263,0.011 0.236,0.011C0.204,0.011 0.175,0.005 0.149,-0.009C0.124,-0.022 0.104,-0.041 0.09,-0.064C0.073,-0.092 0.065,-0.133 0.065,-0.186L0.065,-0.45C0.065,-0.477 0.071,-0.497 0.083,-0.51C0.095,-0.523 0.111,-0.53 0.131,-0.53C0.151,-0.53 0.167,-0.523 0.18,-0.51C0.192,-0.496 0.198,-0.477 0.198,-0.45L0.198,-0.237C0.198,-0.206 0.201,-0.18 0.206,-0.159C0.211,-0.138 0.221,-0.122 0.234,-0.11C0.248,-0.098 0.266,-0.092 0.289,-0.092C0.312,-0.092 0.333,-0.098 0.353,-0.112C0.372,-0.125 0.387,-0.143 0.396,-0.164C0.403,-0.183 0.407,-0.224 0.407,-0.288L0.407,-0.45C0.407,-0.477 0.413,-0.496 0.426,-0.51C0.438,-0.523 0.454,-0.53 0.474,-0.53C0.494,-0.53 0.51,-0.523 0.522,-0.51C0.534,-0.497 0.54,-0.477 0.54,-0.45L0.54,-0.064C0.54,-0.039 0.534,-0.02 0.523,-0.007C0.511,0.006 0.496,0.012 0.478,0.012C0.46,0.012 0.445,0.006 0.433,-0.008C0.421,-0.021 0.415,-0.039 0.415,-0.063Z" style="fill:white;fill-rule:nonzero;"/>
            </g>
            <g transform="matrix(8,0,0,8,76.9896,112.235)">
                <path d="M0.201,-0.18L0.201,-0.069C0.201,-0.042 0.195,-0.022 0.182,-0.008C0.169,0.005 0.153,0.012 0.134,0.012C0.115,0.012 0.099,0.005 0.086,-0.008C0.074,-0.022 0.068,-0.042 0.068,-0.069L0.068,-0.44C0.068,-0.5 0.09,-0.53 0.133,-0.53C0.155,-0.53 0.171,-0.523 0.181,-0.509C0.19,-0.495 0.196,-0.474 0.197,-0.447C0.213,-0.474 0.229,-0.495 0.246,-0.509C0.263,-0.523 0.285,-0.53 0.313,-0.53C0.341,-0.53 0.368,-0.523 0.395,-0.509C0.421,-0.495 0.434,-0.476 0.434,-0.453C0.434,-0.437 0.428,-0.423 0.417,-0.413C0.406,-0.402 0.394,-0.397 0.381,-0.397C0.376,-0.397 0.364,-0.4 0.345,-0.406C0.327,-0.412 0.31,-0.415 0.296,-0.415C0.276,-0.415 0.26,-0.41 0.248,-0.4C0.236,-0.389 0.226,-0.374 0.219,-0.354C0.212,-0.334 0.208,-0.31 0.205,-0.282C0.202,-0.254 0.201,-0.22 0.201,-0.18Z" style="fill:white;fill-rule:nonzero;"/>
            </g>
            <g transform="matrix(8,0,0,8,82.4935,112.235)">
                <path d="M0.434,-0.064L0.434,-0.077C0.416,-0.057 0.399,-0.04 0.381,-0.027C0.364,-0.014 0.345,-0.004 0.324,0.002C0.304,0.009 0.282,0.012 0.258,0.012C0.226,0.012 0.196,0.005 0.169,-0.008C0.142,-0.022 0.118,-0.041 0.099,-0.066C0.079,-0.091 0.064,-0.12 0.053,-0.154C0.043,-0.188 0.038,-0.225 0.038,-0.264C0.038,-0.347 0.058,-0.412 0.099,-0.459C0.14,-0.506 0.193,-0.529 0.26,-0.529C0.298,-0.529 0.331,-0.522 0.357,-0.509C0.383,-0.496 0.409,-0.476 0.434,-0.448L0.434,-0.645C0.434,-0.672 0.44,-0.693 0.45,-0.707C0.461,-0.721 0.477,-0.728 0.497,-0.728C0.517,-0.728 0.533,-0.722 0.544,-0.709C0.555,-0.696 0.56,-0.677 0.56,-0.652L0.56,-0.064C0.56,-0.039 0.554,-0.02 0.542,-0.007C0.531,0.006 0.516,0.012 0.497,0.012C0.479,0.012 0.464,0.006 0.452,-0.008C0.44,-0.021 0.434,-0.04 0.434,-0.064ZM0.172,-0.26C0.172,-0.224 0.177,-0.193 0.189,-0.167C0.2,-0.142 0.215,-0.123 0.235,-0.11C0.254,-0.097 0.276,-0.091 0.299,-0.091C0.322,-0.091 0.344,-0.097 0.363,-0.109C0.382,-0.121 0.398,-0.14 0.409,-0.165C0.421,-0.191 0.427,-0.222 0.427,-0.26C0.427,-0.295 0.421,-0.326 0.409,-0.351C0.398,-0.377 0.382,-0.396 0.363,-0.41C0.343,-0.423 0.321,-0.43 0.298,-0.43C0.273,-0.43 0.252,-0.423 0.232,-0.409C0.213,-0.396 0.198,-0.376 0.188,-0.35C0.177,-0.324 0.172,-0.294 0.172,-0.26Z" style="fill:white;fill-rule:nonzero;"/>
            </g>
            <g transform="matrix(8,0,0,8,87.4935,112.235)">
                <path d="M0.441,-0.226L0.18,-0.226C0.181,-0.196 0.187,-0.169 0.198,-0.146C0.21,-0.123 0.226,-0.105 0.246,-0.094C0.266,-0.082 0.287,-0.076 0.311,-0.076C0.327,-0.076 0.342,-0.078 0.355,-0.082C0.368,-0.086 0.381,-0.091 0.393,-0.099C0.405,-0.107 0.417,-0.116 0.427,-0.125C0.438,-0.134 0.451,-0.146 0.468,-0.162C0.475,-0.168 0.484,-0.171 0.497,-0.171C0.511,-0.171 0.522,-0.167 0.53,-0.16C0.539,-0.152 0.543,-0.142 0.543,-0.128C0.543,-0.116 0.538,-0.102 0.529,-0.086C0.519,-0.07 0.505,-0.054 0.486,-0.039C0.467,-0.024 0.443,-0.012 0.414,-0.002C0.385,0.007 0.352,0.012 0.315,0.012C0.229,0.012 0.163,-0.012 0.115,-0.061C0.068,-0.11 0.044,-0.176 0.044,-0.26C0.044,-0.299 0.05,-0.336 0.062,-0.369C0.073,-0.403 0.09,-0.432 0.113,-0.456C0.135,-0.48 0.163,-0.499 0.196,-0.511C0.229,-0.524 0.265,-0.531 0.305,-0.531C0.357,-0.531 0.402,-0.52 0.439,-0.498C0.476,-0.476 0.504,-0.447 0.523,-0.413C0.542,-0.378 0.551,-0.342 0.551,-0.306C0.551,-0.273 0.541,-0.251 0.522,-0.241C0.503,-0.231 0.476,-0.226 0.441,-0.226ZM0.18,-0.302L0.422,-0.302C0.419,-0.347 0.406,-0.381 0.385,-0.404C0.364,-0.427 0.336,-0.438 0.301,-0.438C0.268,-0.438 0.24,-0.427 0.219,-0.404C0.198,-0.381 0.185,-0.347 0.18,-0.302Z" style="fill:white;fill-rule:nonzero;"/>
            </g>
            <g transform="matrix(8,0,0,8,94.2474,112.235)">
                <path d="M0.069,-0.069L0.069,-0.647C0.069,-0.674 0.075,-0.694 0.087,-0.708C0.099,-0.721 0.115,-0.728 0.135,-0.728C0.155,-0.728 0.171,-0.721 0.184,-0.708C0.196,-0.694 0.202,-0.674 0.202,-0.647L0.202,-0.069C0.202,-0.042 0.196,-0.022 0.183,-0.008C0.171,0.005 0.155,0.012 0.135,0.012C0.115,0.012 0.099,0.005 0.087,-0.009C0.075,-0.023 0.069,-0.043 0.069,-0.069Z" style="fill:white;fill-rule:nonzero;"/>
            </g>
            <g transform="matrix(8,0,0,8,96.4154,112.235)">
                <path d="M0.406,-0.063C0.374,-0.038 0.342,-0.019 0.312,-0.007C0.282,0.006 0.248,0.012 0.211,0.012C0.177,0.012 0.147,0.005 0.121,-0.008C0.095,-0.022 0.075,-0.04 0.061,-0.063C0.047,-0.086 0.04,-0.111 0.04,-0.138C0.04,-0.175 0.052,-0.206 0.075,-0.231C0.098,-0.257 0.13,-0.274 0.17,-0.283C0.178,-0.285 0.199,-0.29 0.233,-0.296C0.266,-0.303 0.295,-0.309 0.319,-0.315C0.343,-0.321 0.369,-0.328 0.397,-0.336C0.395,-0.371 0.388,-0.397 0.376,-0.413C0.363,-0.43 0.337,-0.438 0.298,-0.438C0.264,-0.438 0.239,-0.433 0.221,-0.424C0.204,-0.414 0.19,-0.4 0.177,-0.381C0.165,-0.362 0.157,-0.35 0.152,-0.344C0.147,-0.338 0.136,-0.335 0.119,-0.335C0.104,-0.335 0.091,-0.34 0.08,-0.349C0.069,-0.359 0.064,-0.371 0.064,-0.386C0.064,-0.41 0.072,-0.432 0.089,-0.455C0.105,-0.477 0.131,-0.495 0.167,-0.509C0.202,-0.524 0.245,-0.531 0.298,-0.531C0.356,-0.531 0.403,-0.524 0.436,-0.51C0.47,-0.496 0.493,-0.474 0.507,-0.444C0.521,-0.414 0.528,-0.375 0.528,-0.325C0.528,-0.294 0.528,-0.267 0.528,-0.246C0.527,-0.224 0.527,-0.2 0.527,-0.173C0.527,-0.148 0.531,-0.122 0.539,-0.094C0.548,-0.067 0.552,-0.05 0.552,-0.042C0.552,-0.028 0.545,-0.016 0.532,-0.005C0.52,0.007 0.505,0.012 0.489,0.012C0.475,0.012 0.462,0.006 0.448,-0.007C0.435,-0.02 0.421,-0.039 0.406,-0.063ZM0.397,-0.256C0.377,-0.249 0.349,-0.241 0.312,-0.233C0.274,-0.225 0.249,-0.219 0.234,-0.216C0.22,-0.212 0.206,-0.205 0.193,-0.194C0.18,-0.183 0.174,-0.167 0.174,-0.148C0.174,-0.128 0.181,-0.111 0.197,-0.096C0.212,-0.082 0.232,-0.075 0.257,-0.075C0.283,-0.075 0.308,-0.081 0.33,-0.093C0.352,-0.104 0.368,-0.119 0.379,-0.137C0.391,-0.157 0.397,-0.191 0.397,-0.237L0.397,-0.256Z" style="fill:white;fill-rule:nonzero;"/>
            </g>
            <g transform="matrix(8,0,0,8,32.5463,120.235)">
                <path d="M0.058,-0.518L0.09,-0.518L0.09,-0.558C0.09,-0.6 0.095,-0.633 0.106,-0.657C0.116,-0.682 0.134,-0.7 0.159,-0.711C0.185,-0.722 0.219,-0.728 0.263,-0.728C0.341,-0.728 0.38,-0.709 0.38,-0.671C0.38,-0.659 0.376,-0.648 0.368,-0.639C0.36,-0.63 0.35,-0.626 0.339,-0.626C0.334,-0.626 0.325,-0.627 0.312,-0.629C0.299,-0.631 0.289,-0.632 0.28,-0.632C0.256,-0.632 0.24,-0.625 0.233,-0.611C0.227,-0.596 0.223,-0.576 0.223,-0.55L0.223,-0.518L0.256,-0.518C0.307,-0.518 0.332,-0.503 0.332,-0.472C0.332,-0.45 0.325,-0.437 0.312,-0.431C0.298,-0.425 0.28,-0.422 0.256,-0.422L0.223,-0.422L0.223,-0.069C0.223,-0.042 0.217,-0.022 0.204,-0.009C0.192,0.005 0.176,0.012 0.156,0.012C0.137,0.012 0.121,0.005 0.109,-0.009C0.096,-0.022 0.09,-0.042 0.09,-0.069L0.09,-0.422L0.053,-0.422C0.033,-0.422 0.018,-0.426 0.007,-0.435C-0.003,-0.444 -0.009,-0.456 -0.009,-0.47C-0.009,-0.502 0.014,-0.518 0.058,-0.518Z" style="fill:white;fill-rule:nonzero;"/>
            </g>
            <g transform="matrix(8,0,0,8,35.1049,120.235)">
                <path d="M0.568,-0.259C0.568,-0.219 0.562,-0.182 0.549,-0.149C0.537,-0.115 0.519,-0.087 0.496,-0.063C0.472,-0.038 0.444,-0.02 0.412,-0.007C0.379,0.006 0.342,0.012 0.302,0.012C0.261,0.012 0.225,0.006 0.193,-0.007C0.161,-0.02 0.133,-0.039 0.109,-0.063C0.086,-0.087 0.068,-0.116 0.055,-0.149C0.043,-0.182 0.037,-0.219 0.037,-0.259C0.037,-0.299 0.043,-0.336 0.056,-0.37C0.068,-0.403 0.086,-0.432 0.109,-0.456C0.132,-0.479 0.16,-0.498 0.193,-0.51C0.226,-0.523 0.262,-0.53 0.302,-0.53C0.342,-0.53 0.379,-0.523 0.412,-0.51C0.444,-0.497 0.473,-0.479 0.496,-0.455C0.52,-0.431 0.537,-0.402 0.55,-0.369C0.562,-0.335 0.568,-0.299 0.568,-0.259ZM0.434,-0.259C0.434,-0.313 0.422,-0.355 0.398,-0.386C0.374,-0.416 0.342,-0.431 0.302,-0.431C0.276,-0.431 0.253,-0.424 0.233,-0.411C0.213,-0.397 0.198,-0.377 0.187,-0.351C0.176,-0.325 0.171,-0.294 0.171,-0.259C0.171,-0.224 0.176,-0.194 0.187,-0.167C0.197,-0.141 0.212,-0.122 0.232,-0.108C0.252,-0.094 0.275,-0.087 0.302,-0.087C0.342,-0.087 0.374,-0.102 0.398,-0.133C0.422,-0.163 0.434,-0.205 0.434,-0.259Z" style="fill:white;fill-rule:nonzero;"/>
            </g>
            <g transform="matrix(8,0,0,8,39.9369,120.235)">
                <path d="M0.201,-0.18L0.201,-0.069C0.201,-0.042 0.195,-0.022 0.182,-0.008C0.169,0.005 0.153,0.012 0.134,0.012C0.115,0.012 0.099,0.005 0.086,-0.008C0.074,-0.022 0.068,-0.042 0.068,-0.069L0.068,-0.44C0.068,-0.5 0.09,-0.53 0.133,-0.53C0.155,-0.53 0.171,-0.523 0.181,-0.509C0.19,-0.495 0.196,-0.474 0.197,-0.447C0.213,-0.474 0.229,-0.495 0.246,-0.509C0.263,-0.523 0.285,-0.53 0.313,-0.53C0.341,-0.53 0.368,-0.523 0.395,-0.509C0.421,-0.495 0.434,-0.476 0.434,-0.453C0.434,-0.437 0.428,-0.423 0.417,-0.413C0.406,-0.402 0.394,-0.397 0.381,-0.397C0.376,-0.397 0.364,-0.4 0.345,-0.406C0.327,-0.412 0.31,-0.415 0.296,-0.415C0.276,-0.415 0.26,-0.41 0.248,-0.4C0.236,-0.389 0.226,-0.374 0.219,-0.354C0.212,-0.334 0.208,-0.31 0.205,-0.282C0.202,-0.254 0.201,-0.22 0.201,-0.18Z" style="fill:white;fill-rule:nonzero;"/>
            </g>
            <g transform="matrix(8,0,0,8,43.4408,120.235)">
                <path d="M0.512,-0.249L0.512,-0.072C0.512,-0.044 0.506,-0.023 0.493,-0.009C0.48,0.005 0.464,0.012 0.443,0.012C0.423,0.012 0.406,0.005 0.394,-0.009C0.381,-0.023 0.375,-0.044 0.375,-0.072L0.375,-0.284C0.375,-0.318 0.374,-0.344 0.372,-0.362C0.369,-0.381 0.363,-0.396 0.353,-0.408C0.343,-0.42 0.327,-0.426 0.305,-0.426C0.262,-0.426 0.233,-0.411 0.219,-0.381C0.205,-0.351 0.198,-0.308 0.198,-0.252L0.198,-0.072C0.198,-0.044 0.192,-0.023 0.179,-0.009C0.167,0.005 0.15,0.012 0.13,0.012C0.11,0.012 0.093,0.005 0.08,-0.009C0.067,-0.023 0.061,-0.044 0.061,-0.072L0.061,-0.453C0.061,-0.478 0.067,-0.497 0.078,-0.51C0.09,-0.523 0.105,-0.53 0.124,-0.53C0.142,-0.53 0.157,-0.524 0.17,-0.511C0.182,-0.499 0.188,-0.482 0.188,-0.461L0.188,-0.448C0.211,-0.476 0.236,-0.496 0.262,-0.509C0.289,-0.522 0.318,-0.529 0.35,-0.529C0.384,-0.529 0.412,-0.522 0.437,-0.509C0.461,-0.495 0.48,-0.475 0.496,-0.448C0.519,-0.476 0.543,-0.496 0.568,-0.509C0.594,-0.522 0.623,-0.529 0.654,-0.529C0.69,-0.529 0.722,-0.522 0.748,-0.507C0.774,-0.493 0.794,-0.472 0.807,-0.446C0.819,-0.422 0.824,-0.384 0.824,-0.332L0.824,-0.072C0.824,-0.044 0.818,-0.023 0.805,-0.009C0.792,0.005 0.776,0.012 0.755,0.012C0.735,0.012 0.718,0.005 0.705,-0.009C0.692,-0.023 0.686,-0.044 0.686,-0.072L0.686,-0.296C0.686,-0.325 0.685,-0.347 0.682,-0.365C0.68,-0.382 0.673,-0.396 0.663,-0.408C0.652,-0.42 0.636,-0.426 0.614,-0.426C0.596,-0.426 0.58,-0.421 0.564,-0.41C0.548,-0.4 0.536,-0.386 0.527,-0.368C0.517,-0.346 0.512,-0.306 0.512,-0.249Z" style="fill:white;fill-rule:nonzero;"/>
            </g>
            <g transform="matrix(8,0,0,8,50.5189,120.235)">
                <path d="M0.406,-0.063C0.374,-0.038 0.342,-0.019 0.312,-0.007C0.282,0.006 0.248,0.012 0.211,0.012C0.177,0.012 0.147,0.005 0.121,-0.008C0.095,-0.022 0.075,-0.04 0.061,-0.063C0.047,-0.086 0.04,-0.111 0.04,-0.138C0.04,-0.175 0.052,-0.206 0.075,-0.231C0.098,-0.257 0.13,-0.274 0.17,-0.283C0.178,-0.285 0.199,-0.29 0.233,-0.296C0.266,-0.303 0.295,-0.309 0.319,-0.315C0.343,-0.321 0.369,-0.328 0.397,-0.336C0.395,-0.371 0.388,-0.397 0.376,-0.413C0.363,-0.43 0.337,-0.438 0.298,-0.438C0.264,-0.438 0.239,-0.433 0.221,-0.424C0.204,-0.414 0.19,-0.4 0.177,-0.381C0.165,-0.362 0.157,-0.35 0.152,-0.344C0.147,-0.338 0.136,-0.335 0.119,-0.335C0.104,-0.335 0.091,-0.34 0.08,-0.349C0.069,-0.359 0.064,-0.371 0.064,-0.386C0.064,-0.41 0.072,-0.432 0.089,-0.455C0.105,-0.477 0.131,-0.495 0.167,-0.509C0.202,-0.524 0.245,-0.531 0.298,-0.531C0.356,-0.531 0.403,-0.524 0.436,-0.51C0.47,-0.496 0.493,-0.474 0.507,-0.444C0.521,-0.414 0.528,-0.375 0.528,-0.325C0.528,-0.294 0.528,-0.267 0.528,-0.246C0.527,-0.224 0.527,-0.2 0.527,-0.173C0.527,-0.148 0.531,-0.122 0.539,-0.094C0.548,-0.067 0.552,-0.05 0.552,-0.042C0.552,-0.028 0.545,-0.016 0.532,-0.005C0.52,0.007 0.505,0.012 0.489,0.012C0.475,0.012 0.462,0.006 0.448,-0.007C0.435,-0.02 0.421,-0.039 0.406,-0.063ZM0.397,-0.256C0.377,-0.249 0.349,-0.241 0.312,-0.233C0.274,-0.225 0.249,-0.219 0.234,-0.216C0.22,-0.212 0.206,-0.205 0.193,-0.194C0.18,-0.183 0.174,-0.167 0.174,-0.148C0.174,-0.128 0.181,-0.111 0.197,-0.096C0.212,-0.082 0.232,-0.075 0.257,-0.075C0.283,-0.075 0.308,-0.081 0.33,-0.093C0.352,-0.104 0.368,-0.119 0.379,-0.137C0.391,-0.157 0.397,-0.191 0.397,-0.237L0.397,-0.256Z" style="fill:white;fill-rule:nonzero;"/>
            </g>
            <g transform="matrix(8,0,0,8,55.0736,120.235)">
                <path d="M0.076,-0.518L0.091,-0.518L0.091,-0.598C0.091,-0.62 0.091,-0.636 0.093,-0.649C0.094,-0.661 0.097,-0.671 0.102,-0.68C0.107,-0.689 0.115,-0.697 0.125,-0.702C0.134,-0.708 0.145,-0.711 0.157,-0.711C0.174,-0.711 0.189,-0.705 0.203,-0.692C0.212,-0.683 0.218,-0.673 0.22,-0.661C0.223,-0.649 0.224,-0.631 0.224,-0.609L0.224,-0.518L0.273,-0.518C0.292,-0.518 0.306,-0.514 0.316,-0.505C0.326,-0.496 0.331,-0.484 0.331,-0.47C0.331,-0.452 0.324,-0.44 0.31,-0.433C0.296,-0.425 0.275,-0.422 0.249,-0.422L0.224,-0.422L0.224,-0.177C0.224,-0.156 0.225,-0.14 0.226,-0.129C0.228,-0.117 0.232,-0.108 0.238,-0.101C0.244,-0.094 0.255,-0.091 0.269,-0.091C0.277,-0.091 0.287,-0.092 0.301,-0.095C0.314,-0.098 0.325,-0.099 0.332,-0.099C0.343,-0.099 0.352,-0.095 0.361,-0.086C0.37,-0.078 0.374,-0.067 0.374,-0.054C0.374,-0.033 0.362,-0.016 0.339,-0.005C0.315,0.007 0.282,0.012 0.238,0.012C0.196,0.012 0.165,0.005 0.143,-0.009C0.122,-0.023 0.108,-0.042 0.101,-0.067C0.094,-0.092 0.091,-0.125 0.091,-0.166L0.091,-0.422L0.073,-0.422C0.054,-0.422 0.039,-0.426 0.029,-0.436C0.019,-0.445 0.014,-0.456 0.014,-0.47C0.014,-0.484 0.019,-0.496 0.03,-0.505C0.041,-0.514 0.056,-0.518 0.076,-0.518Z" style="fill:white;fill-rule:nonzero;"/>
            </g>
            <g transform="matrix(8,0,0,8,57.9056,120.235)">
                <path d="M0.202,-0.454L0.202,-0.069C0.202,-0.042 0.196,-0.022 0.183,-0.008C0.17,0.005 0.154,0.012 0.135,0.012C0.115,0.012 0.099,0.005 0.087,-0.009C0.075,-0.023 0.069,-0.043 0.069,-0.069L0.069,-0.45C0.069,-0.477 0.075,-0.496 0.087,-0.51C0.099,-0.523 0.115,-0.53 0.135,-0.53C0.154,-0.53 0.17,-0.523 0.183,-0.51C0.196,-0.496 0.202,-0.478 0.202,-0.454ZM0.136,-0.592C0.118,-0.592 0.102,-0.597 0.089,-0.609C0.075,-0.62 0.069,-0.636 0.069,-0.657C0.069,-0.676 0.076,-0.692 0.089,-0.704C0.103,-0.716 0.118,-0.722 0.136,-0.722C0.153,-0.722 0.169,-0.717 0.182,-0.706C0.195,-0.694 0.202,-0.678 0.202,-0.657C0.202,-0.637 0.196,-0.621 0.183,-0.609C0.17,-0.598 0.154,-0.592 0.136,-0.592Z" style="fill:white;fill-rule:nonzero;"/>
            </g>
            <g transform="matrix(8,0,0,8,60.0736,120.235)">
                <path d="M0.568,-0.259C0.568,-0.219 0.562,-0.182 0.549,-0.149C0.537,-0.115 0.519,-0.087 0.496,-0.063C0.472,-0.038 0.444,-0.02 0.412,-0.007C0.379,0.006 0.342,0.012 0.302,0.012C0.261,0.012 0.225,0.006 0.193,-0.007C0.161,-0.02 0.133,-0.039 0.109,-0.063C0.086,-0.087 0.068,-0.116 0.055,-0.149C0.043,-0.182 0.037,-0.219 0.037,-0.259C0.037,-0.299 0.043,-0.336 0.056,-0.37C0.068,-0.403 0.086,-0.432 0.109,-0.456C0.132,-0.479 0.16,-0.498 0.193,-0.51C0.226,-0.523 0.262,-0.53 0.302,-0.53C0.342,-0.53 0.379,-0.523 0.412,-0.51C0.444,-0.497 0.473,-0.479 0.496,-0.455C0.52,-0.431 0.537,-0.402 0.55,-0.369C0.562,-0.335 0.568,-0.299 0.568,-0.259ZM0.434,-0.259C0.434,-0.313 0.422,-0.355 0.398,-0.386C0.374,-0.416 0.342,-0.431 0.302,-0.431C0.276,-0.431 0.253,-0.424 0.233,-0.411C0.213,-0.397 0.198,-0.377 0.187,-0.351C0.176,-0.325 0.171,-0.294 0.171,-0.259C0.171,-0.224 0.176,-0.194 0.187,-0.167C0.197,-0.141 0.212,-0.122 0.232,-0.108C0.252,-0.094 0.275,-0.087 0.302,-0.087C0.342,-0.087 0.374,-0.102 0.398,-0.133C0.422,-0.163 0.434,-0.205 0.434,-0.259Z" style="fill:white;fill-rule:nonzero;"/>
            </g>
            <g transform="matrix(8,0,0,8,64.9056,120.235)">
                <path d="M0.19,-0.456L0.19,-0.44C0.213,-0.471 0.239,-0.494 0.267,-0.508C0.295,-0.523 0.327,-0.53 0.363,-0.53C0.398,-0.53 0.429,-0.522 0.457,-0.507C0.485,-0.492 0.505,-0.47 0.519,-0.442C0.528,-0.426 0.534,-0.408 0.536,-0.389C0.539,-0.37 0.54,-0.346 0.54,-0.317L0.54,-0.069C0.54,-0.042 0.534,-0.022 0.522,-0.008C0.51,0.005 0.494,0.012 0.474,0.012C0.454,0.012 0.438,0.005 0.426,-0.009C0.413,-0.023 0.407,-0.043 0.407,-0.069L0.407,-0.291C0.407,-0.335 0.401,-0.369 0.389,-0.392C0.377,-0.415 0.352,-0.427 0.316,-0.427C0.292,-0.427 0.271,-0.42 0.251,-0.406C0.231,-0.391 0.217,-0.372 0.208,-0.347C0.201,-0.327 0.198,-0.29 0.198,-0.236L0.198,-0.069C0.198,-0.042 0.192,-0.022 0.179,-0.008C0.167,0.005 0.151,0.012 0.131,0.012C0.112,0.012 0.096,0.005 0.083,-0.009C0.071,-0.023 0.065,-0.043 0.065,-0.069L0.065,-0.454C0.065,-0.479 0.07,-0.498 0.082,-0.511C0.093,-0.524 0.108,-0.53 0.127,-0.53C0.139,-0.53 0.149,-0.527 0.159,-0.521C0.168,-0.516 0.176,-0.508 0.181,-0.497C0.187,-0.486 0.19,-0.472 0.19,-0.456Z" style="fill:white;fill-rule:nonzero;"/>
            </g>
            <g transform="matrix(8,0,0,8,71.7377,120.235)">
                <path d="M0.202,-0.454L0.202,-0.069C0.202,-0.042 0.196,-0.022 0.183,-0.008C0.17,0.005 0.154,0.012 0.135,0.012C0.115,0.012 0.099,0.005 0.087,-0.009C0.075,-0.023 0.069,-0.043 0.069,-0.069L0.069,-0.45C0.069,-0.477 0.075,-0.496 0.087,-0.51C0.099,-0.523 0.115,-0.53 0.135,-0.53C0.154,-0.53 0.17,-0.523 0.183,-0.51C0.196,-0.496 0.202,-0.478 0.202,-0.454ZM0.136,-0.592C0.118,-0.592 0.102,-0.597 0.089,-0.609C0.075,-0.62 0.069,-0.636 0.069,-0.657C0.069,-0.676 0.076,-0.692 0.089,-0.704C0.103,-0.716 0.118,-0.722 0.136,-0.722C0.153,-0.722 0.169,-0.717 0.182,-0.706C0.195,-0.694 0.202,-0.678 0.202,-0.657C0.202,-0.637 0.196,-0.621 0.183,-0.609C0.17,-0.598 0.154,-0.592 0.136,-0.592Z" style="fill:white;fill-rule:nonzero;"/>
            </g>
            <g transform="matrix(8,0,0,8,73.9056,120.235)">
                <path d="M0.19,-0.456L0.19,-0.44C0.213,-0.471 0.239,-0.494 0.267,-0.508C0.295,-0.523 0.327,-0.53 0.363,-0.53C0.398,-0.53 0.429,-0.522 0.457,-0.507C0.485,-0.492 0.505,-0.47 0.519,-0.442C0.528,-0.426 0.534,-0.408 0.536,-0.389C0.539,-0.37 0.54,-0.346 0.54,-0.317L0.54,-0.069C0.54,-0.042 0.534,-0.022 0.522,-0.008C0.51,0.005 0.494,0.012 0.474,0.012C0.454,0.012 0.438,0.005 0.426,-0.009C0.413,-0.023 0.407,-0.043 0.407,-0.069L0.407,-0.291C0.407,-0.335 0.401,-0.369 0.389,-0.392C0.377,-0.415 0.352,-0.427 0.316,-0.427C0.292,-0.427 0.271,-0.42 0.251,-0.406C0.231,-0.391 0.217,-0.372 0.208,-0.347C0.201,-0.327 0.198,-0.29 0.198,-0.236L0.198,-0.069C0.198,-0.042 0.192,-0.022 0.179,-0.008C0.167,0.005 0.151,0.012 0.131,0.012C0.112,0.012 0.096,0.005 0.083,-0.009C0.071,-0.023 0.065,-0.043 0.065,-0.069L0.065,-0.454C0.065,-0.479 0.07,-0.498 0.082,-0.511C0.093,-0.524 0.108,-0.53 0.127,-0.53C0.139,-0.53 0.149,-0.527 0.159,-0.521C0.168,-0.516 0.176,-0.508 0.181,-0.497C0.187,-0.486 0.19,-0.472 0.19,-0.456Z" style="fill:white;fill-rule:nonzero;"/>
            </g>
            <g transform="matrix(8,0,0,8,78.7377,120.235)">
                <path d="M0.19,-0.456L0.19,-0.44C0.213,-0.471 0.239,-0.494 0.267,-0.508C0.295,-0.523 0.327,-0.53 0.363,-0.53C0.398,-0.53 0.429,-0.522 0.457,-0.507C0.485,-0.492 0.505,-0.47 0.519,-0.442C0.528,-0.426 0.534,-0.408 0.536,-0.389C0.539,-0.37 0.54,-0.346 0.54,-0.317L0.54,-0.069C0.54,-0.042 0.534,-0.022 0.522,-0.008C0.51,0.005 0.494,0.012 0.474,0.012C0.454,0.012 0.438,0.005 0.426,-0.009C0.413,-0.023 0.407,-0.043 0.407,-0.069L0.407,-0.291C0.407,-0.335 0.401,-0.369 0.389,-0.392C0.377,-0.415 0.352,-0.427 0.316,-0.427C0.292,-0.427 0.271,-0.42 0.251,-0.406C0.231,-0.391 0.217,-0.372 0.208,-0.347C0.201,-0.327 0.198,-0.29 0.198,-0.236L0.198,-0.069C0.198,-0.042 0.192,-0.022 0.179,-0.008C0.167,0.005 0.151,0.012 0.131,0.012C0.112,0.012 0.096,0.005 0.083,-0.009C0.071,-0.023 0.065,-0.043 0.065,-0.069L0.065,-0.454C0.065,-0.479 0.07,-0.498 0.082,-0.511C0.093,-0.524 0.108,-0.53 0.127,-0.53C0.139,-0.53 0.149,-0.527 0.159,-0.521C0.168,-0.516 0.176,-0.508 0.181,-0.497C0.187,-0.486 0.19,-0.472 0.19,-0.456Z" style="fill:white;fill-rule:nonzero;"/>
            </g>
            <g transform="matrix(8,0,0,8,83.5697,120.235)">
                <path d="M0.568,-0.259C0.568,-0.219 0.562,-0.182 0.549,-0.149C0.537,-0.115 0.519,-0.087 0.496,-0.063C0.472,-0.038 0.444,-0.02 0.412,-0.007C0.379,0.006 0.342,0.012 0.302,0.012C0.261,0.012 0.225,0.006 0.193,-0.007C0.161,-0.02 0.133,-0.039 0.109,-0.063C0.086,-0.087 0.068,-0.116 0.055,-0.149C0.043,-0.182 0.037,-0.219 0.037,-0.259C0.037,-0.299 0.043,-0.336 0.056,-0.37C0.068,-0.403 0.086,-0.432 0.109,-0.456C0.132,-0.479 0.16,-0.498 0.193,-0.51C0.226,-0.523 0.262,-0.53 0.302,-0.53C0.342,-0.53 0.379,-0.523 0.412,-0.51C0.444,-0.497 0.473,-0.479 0.496,-0.455C0.52,-0.431 0.537,-0.402 0.55,-0.369C0.562,-0.335 0.568,-0.299 0.568,-0.259ZM0.434,-0.259C0.434,-0.313 0.422,-0.355 0.398,-0.386C0.374,-0.416 0.342,-0.431 0.302,-0.431C0.276,-0.431 0.253,-0.424 0.233,-0.411C0.213,-0.397 0.198,-0.377 0.187,-0.351C0.176,-0.325 0.171,-0.294 0.171,-0.259C0.171,-0.224 0.176,-0.194 0.187,-0.167C0.197,-0.141 0.212,-0.122 0.232,-0.108C0.252,-0.094 0.275,-0.087 0.302,-0.087C0.342,-0.087 0.374,-0.102 0.398,-0.133C0.422,-0.163 0.434,-0.205 0.434,-0.259Z" style="fill:white;fill-rule:nonzero;"/>
            </g>
            <g transform="matrix(8,0,0,8,88.2963,120.235)">
                <path d="M0.163,-0.447L0.271,-0.144L0.387,-0.46C0.396,-0.485 0.405,-0.503 0.414,-0.514C0.423,-0.524 0.436,-0.53 0.454,-0.53C0.471,-0.53 0.485,-0.524 0.497,-0.513C0.509,-0.501 0.515,-0.488 0.515,-0.473C0.515,-0.467 0.514,-0.46 0.512,-0.453C0.51,-0.445 0.507,-0.438 0.505,-0.431C0.502,-0.424 0.499,-0.416 0.495,-0.407L0.367,-0.09C0.364,-0.081 0.359,-0.069 0.353,-0.055C0.348,-0.041 0.341,-0.029 0.334,-0.019C0.327,-0.009 0.319,-0.002 0.308,0.004C0.298,0.009 0.286,0.012 0.271,0.012C0.252,0.012 0.237,0.008 0.226,-0.001C0.215,-0.009 0.206,-0.019 0.201,-0.029C0.196,-0.039 0.187,-0.06 0.174,-0.09L0.047,-0.404C0.044,-0.412 0.041,-0.419 0.038,-0.427C0.035,-0.435 0.032,-0.443 0.03,-0.451C0.028,-0.459 0.027,-0.466 0.027,-0.472C0.027,-0.481 0.03,-0.49 0.035,-0.499C0.041,-0.508 0.048,-0.516 0.058,-0.521C0.068,-0.527 0.078,-0.53 0.09,-0.53C0.112,-0.53 0.127,-0.523 0.135,-0.511C0.144,-0.498 0.153,-0.477 0.163,-0.447Z" style="fill:white;fill-rule:nonzero;"/>
            </g>
            <g transform="matrix(8,0,0,8,92.5267,120.235)">
                <path d="M0.406,-0.063C0.374,-0.038 0.342,-0.019 0.312,-0.007C0.282,0.006 0.248,0.012 0.211,0.012C0.177,0.012 0.147,0.005 0.121,-0.008C0.095,-0.022 0.075,-0.04 0.061,-0.063C0.047,-0.086 0.04,-0.111 0.04,-0.138C0.04,-0.175 0.052,-0.206 0.075,-0.231C0.098,-0.257 0.13,-0.274 0.17,-0.283C0.178,-0.285 0.199,-0.29 0.233,-0.296C0.266,-0.303 0.295,-0.309 0.319,-0.315C0.343,-0.321 0.369,-0.328 0.397,-0.336C0.395,-0.371 0.388,-0.397 0.376,-0.413C0.363,-0.43 0.337,-0.438 0.298,-0.438C0.264,-0.438 0.239,-0.433 0.221,-0.424C0.204,-0.414 0.19,-0.4 0.177,-0.381C0.165,-0.362 0.157,-0.35 0.152,-0.344C0.147,-0.338 0.136,-0.335 0.119,-0.335C0.104,-0.335 0.091,-0.34 0.08,-0.349C0.069,-0.359 0.064,-0.371 0.064,-0.386C0.064,-0.41 0.072,-0.432 0.089,-0.455C0.105,-0.477 0.131,-0.495 0.167,-0.509C0.202,-0.524 0.245,-0.531 0.298,-0.531C0.356,-0.531 0.403,-0.524 0.436,-0.51C0.47,-0.496 0.493,-0.474 0.507,-0.444C0.521,-0.414 0.528,-0.375 0.528,-0.325C0.528,-0.294 0.528,-0.267 0.528,-0.246C0.527,-0.224 0.527,-0.2 0.527,-0.173C0.527,-0.148 0.531,-0.122 0.539,-0.094C0.548,-0.067 0.552,-0.05 0.552,-0.042C0.552,-0.028 0.545,-0.016 0.532,-0.005C0.52,0.007 0.505,0.012 0.489,0.012C0.475,0.012 0.462,0.006 0.448,-0.007C0.435,-0.02 0.421,-0.039 0.406,-0.063ZM0.397,-0.256C0.377,-0.249 0.349,-0.241 0.312,-0.233C0.274,-0.225 0.249,-0.219 0.234,-0.216C0.22,-0.212 0.206,-0.205 0.193,-0.194C0.18,-0.183 0.174,-0.167 0.174,-0.148C0.174,-0.128 0.181,-0.111 0.197,-0.096C0.212,-0.082 0.232,-0.075 0.257,-0.075C0.283,-0.075 0.308,-0.081 0.33,-0.093C0.352,-0.104 0.368,-0.119 0.379,-0.137C0.391,-0.157 0.397,-0.191 0.397,-0.237L0.397,-0.256Z" style="fill:white;fill-rule:nonzero;"/>
            </g>
            <g transform="matrix(8,0,0,8,97.2806,120.235)">
                <path d="M0.19,-0.456L0.19,-0.44C0.213,-0.471 0.239,-0.494 0.267,-0.508C0.295,-0.523 0.327,-0.53 0.363,-0.53C0.398,-0.53 0.429,-0.522 0.457,-0.507C0.485,-0.492 0.505,-0.47 0.519,-0.442C0.528,-0.426 0.534,-0.408 0.536,-0.389C0.539,-0.37 0.54,-0.346 0.54,-0.317L0.54,-0.069C0.54,-0.042 0.534,-0.022 0.522,-0.008C0.51,0.005 0.494,0.012 0.474,0.012C0.454,0.012 0.438,0.005 0.426,-0.009C0.413,-0.023 0.407,-0.043 0.407,-0.069L0.407,-0.291C0.407,-0.335 0.401,-0.369 0.389,-0.392C0.377,-0.415 0.352,-0.427 0.316,-0.427C0.292,-0.427 0.271,-0.42 0.251,-0.406C0.231,-0.391 0.217,-0.372 0.208,-0.347C0.201,-0.327 0.198,-0.29 0.198,-0.236L0.198,-0.069C0.198,-0.042 0.192,-0.022 0.179,-0.008C0.167,0.005 0.151,0.012 0.131,0.012C0.112,0.012 0.096,0.005 0.083,-0.009C0.071,-0.023 0.065,-0.043 0.065,-0.069L0.065,-0.454C0.065,-0.479 0.07,-0.498 0.082,-0.511C0.093,-0.524 0.108,-0.53 0.127,-0.53C0.139,-0.53 0.149,-0.527 0.159,-0.521C0.168,-0.516 0.176,-0.508 0.181,-0.497C0.187,-0.486 0.19,-0.472 0.19,-0.456Z" style="fill:white;fill-rule:nonzero;"/>
            </g>
            <g transform="matrix(8,0,0,8,102.113,120.235)">
                <path d="M0.076,-0.518L0.091,-0.518L0.091,-0.598C0.091,-0.62 0.091,-0.636 0.093,-0.649C0.094,-0.661 0.097,-0.671 0.102,-0.68C0.107,-0.689 0.115,-0.697 0.125,-0.702C0.134,-0.708 0.145,-0.711 0.157,-0.711C0.174,-0.711 0.189,-0.705 0.203,-0.692C0.212,-0.683 0.218,-0.673 0.22,-0.661C0.223,-0.649 0.224,-0.631 0.224,-0.609L0.224,-0.518L0.273,-0.518C0.292,-0.518 0.306,-0.514 0.316,-0.505C0.326,-0.496 0.331,-0.484 0.331,-0.47C0.331,-0.452 0.324,-0.44 0.31,-0.433C0.296,-0.425 0.275,-0.422 0.249,-0.422L0.224,-0.422L0.224,-0.177C0.224,-0.156 0.225,-0.14 0.226,-0.129C0.228,-0.117 0.232,-0.108 0.238,-0.101C0.244,-0.094 0.255,-0.091 0.269,-0.091C0.277,-0.091 0.287,-0.092 0.301,-0.095C0.314,-0.098 0.325,-0.099 0.332,-0.099C0.343,-0.099 0.352,-0.095 0.361,-0.086C0.37,-0.078 0.374,-0.067 0.374,-0.054C0.374,-0.033 0.362,-0.016 0.339,-0.005C0.315,0.007 0.282,0.012 0.238,0.012C0.196,0.012 0.165,0.005 0.143,-0.009C0.122,-0.023 0.108,-0.042 0.101,-0.067C0.094,-0.092 0.091,-0.125 0.091,-0.166L0.091,-0.422L0.073,-0.422C0.054,-0.422 0.039,-0.426 0.029,-0.436C0.019,-0.445 0.014,-0.456 0.014,-0.47C0.014,-0.484 0.019,-0.496 0.03,-0.505C0.041,-0.514 0.056,-0.518 0.076,-0.518Z" style="fill:white;fill-rule:nonzero;"/>
            </g>
            <g transform="matrix(8,0,0,8,104.945,120.235)">
                <path d="M0.441,-0.226L0.18,-0.226C0.181,-0.196 0.187,-0.169 0.198,-0.146C0.21,-0.123 0.226,-0.105 0.246,-0.094C0.266,-0.082 0.287,-0.076 0.311,-0.076C0.327,-0.076 0.342,-0.078 0.355,-0.082C0.368,-0.086 0.381,-0.091 0.393,-0.099C0.405,-0.107 0.417,-0.116 0.427,-0.125C0.438,-0.134 0.451,-0.146 0.468,-0.162C0.475,-0.168 0.484,-0.171 0.497,-0.171C0.511,-0.171 0.522,-0.167 0.53,-0.16C0.539,-0.152 0.543,-0.142 0.543,-0.128C0.543,-0.116 0.538,-0.102 0.529,-0.086C0.519,-0.07 0.505,-0.054 0.486,-0.039C0.467,-0.024 0.443,-0.012 0.414,-0.002C0.385,0.007 0.352,0.012 0.315,0.012C0.229,0.012 0.163,-0.012 0.115,-0.061C0.068,-0.11 0.044,-0.176 0.044,-0.26C0.044,-0.299 0.05,-0.336 0.062,-0.369C0.073,-0.403 0.09,-0.432 0.113,-0.456C0.135,-0.48 0.163,-0.499 0.196,-0.511C0.229,-0.524 0.265,-0.531 0.305,-0.531C0.357,-0.531 0.402,-0.52 0.439,-0.498C0.476,-0.476 0.504,-0.447 0.523,-0.413C0.542,-0.378 0.551,-0.342 0.551,-0.306C0.551,-0.273 0.541,-0.251 0.522,-0.241C0.503,-0.231 0.476,-0.226 0.441,-0.226ZM0.18,-0.302L0.422,-0.302C0.419,-0.347 0.406,-0.381 0.385,-0.404C0.364,-0.427 0.336,-0.438 0.301,-0.438C0.268,-0.438 0.24,-0.427 0.219,-0.404C0.198,-0.381 0.185,-0.347 0.18,-0.302Z" style="fill:white;fill-rule:nonzero;"/>
            </g>
        </g>
    </g>
</svg>
